<svg xmlns="http://www.w3.org/2000/svg" xmlns:xlink="http://www.w3.org/1999/xlink" width="500" zoomAndPan="magnify" viewBox="0 0 375 374.999991" height="500" preserveAspectRatio="xMidYMid meet" version="1.0"><defs><g/><clipPath id="id1"><path d="M 22.4375 37.5 L 356.1875 37.5 L 356.1875 327 L 22.4375 327 Z M 22.4375 37.5 " clip-rule="nonzero"/></clipPath><clipPath id="id2"><path d="M 2.738281 209.59375 L 373.988281 209.59375 L 373.988281 264.34375 L 2.738281 264.34375 Z M 2.738281 209.59375 " clip-rule="nonzero"/></clipPath></defs><g clip-path="url(#id1)"><path fill="#000000" d="M 189.351562 103.988281 L 317.960938 326.722656 L 356.238281 326.722656 L 189.351562 37.699219 L 22.464844 326.722656 L 60.742188 326.722656 L 189.351562 103.988281 " fill-opacity="1" fill-rule="nonzero"/></g><path fill="#000000" d="M 189.351562 215.0625 L 253.828125 326.722656 L 292.101562 326.722656 L 189.351562 148.773438 L 86.601562 326.722656 L 124.875 326.722656 L 189.351562 215.0625 " fill-opacity="1" fill-rule="nonzero"/><g clip-path="url(#id2)"><path fill="#000000" d="M 2.753906 209.59375 L 373.972656 209.59375 L 373.972656 264.34375 L 2.753906 264.34375 L 2.753906 209.59375 " fill-opacity="1" fill-rule="nonzero"/></g><g fill="#ffffff" fill-opacity="1"><g transform="translate(16.514923, 250.852644)"><g><path d="M 19 -5.515625 L 6.671875 -5.515625 L 4.328125 0 L 0.03125 0 L 10.828125 -24.453125 L 15.0625 -24.453125 L 25.75 0 L 21.34375 0 Z M 17.4375 -9.1875 L 12.828125 -20.046875 L 8.203125 -9.1875 Z M 17.4375 -9.1875 "/></g></g></g><g fill="#ffffff" fill-opacity="1"><g transform="translate(57.705983, 250.852644)"><g><path d="M 3.21875 -24.453125 L 13.828125 -24.453125 C 16.367188 -24.453125 18.375 -23.910156 19.84375 -22.828125 C 21.3125 -21.742188 22.046875 -20.25 22.046875 -18.34375 C 22.046875 -16.96875 21.660156 -15.796875 20.890625 -14.828125 C 20.117188 -13.859375 19.070312 -13.210938 17.75 -12.890625 C 19.375 -12.609375 20.648438 -11.921875 21.578125 -10.828125 C 22.515625 -9.734375 22.984375 -8.359375 22.984375 -6.703125 C 22.984375 -4.609375 22.191406 -2.96875 20.609375 -1.78125 C 19.023438 -0.59375 16.847656 0 14.078125 0 L 3.21875 0 Z M 7.34375 -20.78125 L 7.34375 -14.328125 L 13.625 -14.328125 C 14.925781 -14.328125 15.945312 -14.617188 16.6875 -15.203125 C 17.4375 -15.785156 17.8125 -16.585938 17.8125 -17.609375 C 17.8125 -18.628906 17.441406 -19.410156 16.703125 -19.953125 C 15.972656 -20.503906 14.945312 -20.78125 13.625 -20.78125 Z M 7.34375 -10.6875 L 7.34375 -3.671875 L 13.625 -3.671875 C 15.257812 -3.671875 16.523438 -3.976562 17.421875 -4.59375 C 18.316406 -5.207031 18.765625 -6.085938 18.765625 -7.234375 C 18.765625 -8.304688 18.304688 -9.148438 17.390625 -9.765625 C 16.484375 -10.378906 15.226562 -10.6875 13.625 -10.6875 Z M 7.34375 -10.6875 "/></g></g></g><g fill="#ffffff" fill-opacity="1"><g transform="translate(97.779161, 250.852644)"><g><path d="M 3.21875 -24.453125 L 13.234375 -24.453125 C 16.890625 -24.453125 19.910156 -23.296875 22.296875 -20.984375 C 24.691406 -18.679688 25.890625 -15.757812 25.890625 -12.21875 C 25.890625 -8.6875 24.6875 -5.765625 22.28125 -3.453125 C 19.882812 -1.148438 16.835938 0 13.140625 0 L 3.21875 0 Z M 7.34375 -20.75 L 7.34375 -3.703125 L 13.34375 -3.703125 C 15.738281 -3.703125 17.734375 -4.5 19.328125 -6.09375 C 20.929688 -7.6875 21.734375 -9.71875 21.734375 -12.1875 C 21.734375 -14.65625 20.910156 -16.695312 19.265625 -18.3125 C 17.628906 -19.9375 15.597656 -20.75 13.171875 -20.75 Z M 7.34375 -20.75 "/></g></g></g><g fill="#ffffff" fill-opacity="1"><g transform="translate(140.262763, 250.852644)"><g><path d="M 24 -24.453125 L 24 -10.125 C 24 -6.9375 23.054688 -4.421875 21.171875 -2.578125 C 19.285156 -0.742188 16.6875 0.171875 13.375 0.171875 C 10.070312 0.171875 7.46875 -0.742188 5.5625 -2.578125 C 3.664062 -4.421875 2.71875 -6.9375 2.71875 -10.125 L 2.71875 -24.453125 L 6.84375 -24.453125 L 6.84375 -10.125 C 6.84375 -8.082031 7.429688 -6.472656 8.609375 -5.296875 C 9.785156 -4.117188 11.390625 -3.53125 13.421875 -3.53125 C 15.421875 -3.53125 16.992188 -4.109375 18.140625 -5.265625 C 19.296875 -6.429688 19.875 -8.050781 19.875 -10.125 L 19.875 -24.453125 Z M 24 -24.453125 "/></g></g></g><g fill="#ffffff" fill-opacity="1"><g transform="translate(182.362095, 250.852644)"><g><path d="M 7.34375 -3.734375 L 17.921875 -3.734375 L 17.921875 0 L 3.21875 0 L 3.21875 -24.453125 L 7.34375 -24.453125 Z M 7.34375 -3.734375 "/></g></g></g><g fill="#ffffff" fill-opacity="1"><g transform="translate(216.426691, 250.852644)"><g><path d="M 7.34375 -3.734375 L 17.921875 -3.734375 L 17.921875 0 L 3.21875 0 L 3.21875 -24.453125 L 7.34375 -24.453125 Z M 7.34375 -3.734375 "/></g></g></g><g fill="#ffffff" fill-opacity="1"><g transform="translate(250.491286, 250.852644)"><g><path d="M 4.921875 -21.015625 C 7.421875 -23.378906 10.5 -24.5625 14.15625 -24.5625 C 17.8125 -24.5625 20.882812 -23.378906 23.375 -21.015625 C 25.863281 -18.648438 27.109375 -15.71875 27.109375 -12.21875 C 27.109375 -8.726562 25.863281 -5.789062 23.375 -3.40625 C 20.882812 -1.019531 17.8125 0.171875 14.15625 0.171875 C 10.5 0.171875 7.421875 -1.019531 4.921875 -3.40625 C 2.429688 -5.789062 1.1875 -8.726562 1.1875 -12.21875 C 1.1875 -15.71875 2.429688 -18.648438 4.921875 -21.015625 Z M 14.1875 -20.859375 C 11.757812 -20.859375 9.679688 -20.023438 7.953125 -18.359375 C 6.234375 -16.691406 5.375 -14.644531 5.375 -12.21875 C 5.375 -9.800781 6.242188 -7.75 7.984375 -6.0625 C 9.722656 -4.375 11.789062 -3.53125 14.1875 -3.53125 C 16.582031 -3.53125 18.628906 -4.375 20.328125 -6.0625 C 22.035156 -7.75 22.890625 -9.800781 22.890625 -12.21875 C 22.890625 -14.644531 22.035156 -16.691406 20.328125 -18.359375 C 18.628906 -20.023438 16.582031 -20.859375 14.1875 -20.859375 Z M 14.1875 -20.859375 "/></g></g></g><g fill="#ffffff" fill-opacity="1"><g transform="translate(294.197551, 250.852644)"><g><path d="M 19.53125 0 L 11.5 -10.796875 L 7.34375 -6.21875 L 7.34375 0 L 3.21875 0 L 3.21875 -24.453125 L 7.34375 -24.453125 L 7.34375 -11.8125 L 19 -24.453125 L 23.859375 -24.453125 L 14.390625 -14.015625 L 24.484375 0 Z M 19.53125 0 "/></g></g></g><g fill="#ffffff" fill-opacity="1"><g transform="translate(334.68995, 250.852644)"><g><path d="M 24.421875 0 L 20.296875 0 L 20.296875 -10.125 L 7.34375 -10.125 L 7.34375 0 L 3.21875 0 L 3.21875 -24.453125 L 7.34375 -24.453125 L 7.34375 -13.828125 L 20.296875 -13.828125 L 20.296875 -24.453125 L 24.421875 -24.453125 Z M 24.421875 0 "/></g></g></g></svg>