<svg xmlns="http://www.w3.org/2000/svg" xmlns:xlink="http://www.w3.org/1999/xlink" width="500" zoomAndPan="magnify" viewBox="0 0 375 374.999991" height="500" preserveAspectRatio="xMidYMid meet" version="1.0"><defs><g/><clipPath id="id1"><path d="M 26.410156 23.886719 L 353.410156 23.886719 L 353.410156 350.886719 L 26.410156 350.886719 Z M 26.410156 23.886719 " clip-rule="nonzero"/></clipPath><clipPath id="id2"><path d="M 66.625 82.640625 L 308.125 82.640625 L 308.125 292.640625 L 66.625 292.640625 Z M 66.625 82.640625 " clip-rule="nonzero"/></clipPath><clipPath id="id3"><path d="M 113 163 L 262 163 L 262 292.640625 L 113 292.640625 Z M 113 163 " clip-rule="nonzero"/></clipPath><clipPath id="id4"><path d="M 55.710938 203.019531 L 324.210938 203.019531 L 324.210938 242.769531 L 55.710938 242.769531 Z M 55.710938 203.019531 " clip-rule="nonzero"/></clipPath></defs><g clip-path="url(#id1)"><path fill="#ffffff" d="M 332.144531 350.886719 L 47.675781 350.886719 C 35.957031 350.886719 26.410156 341.339844 26.410156 329.621094 L 26.410156 45.152344 C 26.410156 33.433594 35.957031 23.886719 47.675781 23.886719 L 332.144531 23.886719 C 343.863281 23.886719 353.410156 33.433594 353.410156 45.152344 L 353.410156 329.621094 C 353.410156 341.339844 343.863281 350.886719 332.144531 350.886719 " fill-opacity="1" fill-rule="nonzero"/></g><g clip-path="url(#id2)"><path fill="#000000" d="M 187.402344 130.871094 L 280.464844 292.4375 L 308.160156 292.4375 L 187.402344 82.785156 L 66.644531 292.4375 L 94.339844 292.4375 L 187.402344 130.871094 " fill-opacity="1" fill-rule="nonzero"/></g><g clip-path="url(#id3)"><path fill="#000000" d="M 187.402344 211.441406 L 234.058594 292.4375 L 261.75 292.4375 L 187.402344 163.359375 L 113.054688 292.4375 L 140.746094 292.4375 L 187.402344 211.441406 " fill-opacity="1" fill-rule="nonzero"/></g><g clip-path="url(#id4)"><path fill="#000000" d="M 55.710938 203.019531 L 324.210938 203.019531 L 324.210938 242.769531 L 55.710938 242.769531 L 55.710938 203.019531 " fill-opacity="1" fill-rule="nonzero"/></g><g fill="#ffffff" fill-opacity="1"><g transform="translate(67.881322, 232.884994)"><g><path d="M 13.765625 -4 L 4.828125 -4 L 3.140625 0 L 0.03125 0 L 7.84375 -17.703125 L 10.90625 -17.703125 L 18.640625 0 L 15.453125 0 Z M 12.625 -6.65625 L 9.28125 -14.515625 L 5.9375 -6.65625 Z M 12.625 -6.65625 "/></g></g></g><g fill="#ffffff" fill-opacity="1"><g transform="translate(97.698327, 232.884994)"><g><path d="M 2.328125 -17.703125 L 10.015625 -17.703125 C 11.859375 -17.703125 13.3125 -17.3125 14.375 -16.53125 C 15.4375 -15.75 15.96875 -14.664062 15.96875 -13.28125 C 15.96875 -12.28125 15.6875 -11.429688 15.125 -10.734375 C 14.570312 -10.035156 13.8125 -9.566406 12.84375 -9.328125 C 14.03125 -9.128906 14.957031 -8.632812 15.625 -7.84375 C 16.300781 -7.050781 16.640625 -6.054688 16.640625 -4.859375 C 16.640625 -3.335938 16.066406 -2.144531 14.921875 -1.28125 C 13.773438 -0.425781 12.195312 0 10.1875 0 L 2.328125 0 Z M 5.3125 -15.046875 L 5.3125 -10.375 L 9.859375 -10.375 C 10.804688 -10.375 11.550781 -10.582031 12.09375 -11 C 12.632812 -11.425781 12.90625 -12.007812 12.90625 -12.75 C 12.90625 -13.488281 12.640625 -14.054688 12.109375 -14.453125 C 11.578125 -14.847656 10.828125 -15.046875 9.859375 -15.046875 Z M 5.3125 -7.734375 L 5.3125 -2.65625 L 9.859375 -2.65625 C 11.046875 -2.65625 11.960938 -2.878906 12.609375 -3.328125 C 13.253906 -3.773438 13.578125 -4.410156 13.578125 -5.234375 C 13.578125 -6.015625 13.25 -6.625 12.59375 -7.0625 C 11.9375 -7.507812 11.023438 -7.734375 9.859375 -7.734375 Z M 5.3125 -7.734375 "/></g></g></g><g fill="#ffffff" fill-opacity="1"><g transform="translate(126.70613, 232.884994)"><g><path d="M 2.328125 -17.703125 L 9.59375 -17.703125 C 12.238281 -17.703125 14.425781 -16.867188 16.15625 -15.203125 C 17.882812 -13.535156 18.75 -11.421875 18.75 -8.859375 C 18.75 -6.296875 17.878906 -4.175781 16.140625 -2.5 C 14.398438 -0.832031 12.191406 0 9.515625 0 L 2.328125 0 Z M 5.3125 -15.03125 L 5.3125 -2.6875 L 9.65625 -2.6875 C 11.394531 -2.6875 12.84375 -3.257812 14 -4.40625 C 15.15625 -5.5625 15.734375 -7.035156 15.734375 -8.828125 C 15.734375 -10.617188 15.140625 -12.097656 13.953125 -13.265625 C 12.765625 -14.441406 11.289062 -15.03125 9.53125 -15.03125 Z M 5.3125 -15.03125 "/></g></g></g><g fill="#ffffff" fill-opacity="1"><g transform="translate(157.458768, 232.884994)"><g><path d="M 17.375 -17.703125 L 17.375 -7.34375 C 17.375 -5.03125 16.691406 -3.207031 15.328125 -1.875 C 13.960938 -0.539062 12.082031 0.125 9.6875 0.125 C 7.289062 0.125 5.40625 -0.539062 4.03125 -1.875 C 2.65625 -3.207031 1.96875 -5.03125 1.96875 -7.34375 L 1.96875 -17.703125 L 4.953125 -17.703125 L 4.953125 -7.34375 C 4.953125 -5.851562 5.378906 -4.679688 6.234375 -3.828125 C 7.085938 -2.984375 8.25 -2.5625 9.71875 -2.5625 C 11.164062 -2.5625 12.304688 -2.976562 13.140625 -3.8125 C 13.972656 -4.65625 14.390625 -5.832031 14.390625 -7.34375 L 14.390625 -17.703125 Z M 17.375 -17.703125 "/></g></g></g><g fill="#ffffff" fill-opacity="1"><g transform="translate(187.933244, 232.884994)"><g><path d="M 5.3125 -2.703125 L 12.984375 -2.703125 L 12.984375 0 L 2.328125 0 L 2.328125 -17.703125 L 5.3125 -17.703125 Z M 5.3125 -2.703125 "/></g></g></g><g fill="#ffffff" fill-opacity="1"><g transform="translate(212.59161, 232.884994)"><g><path d="M 5.3125 -2.703125 L 12.984375 -2.703125 L 12.984375 0 L 2.328125 0 L 2.328125 -17.703125 L 5.3125 -17.703125 Z M 5.3125 -2.703125 "/></g></g></g><g fill="#ffffff" fill-opacity="1"><g transform="translate(237.249975, 232.884994)"><g><path d="M 3.5625 -15.21875 C 5.375 -16.925781 7.601562 -17.78125 10.25 -17.78125 C 12.894531 -17.78125 15.117188 -16.925781 16.921875 -15.21875 C 18.722656 -13.507812 19.625 -11.390625 19.625 -8.859375 C 19.625 -6.328125 18.722656 -4.195312 16.921875 -2.46875 C 15.117188 -0.738281 12.894531 0.125 10.25 0.125 C 7.601562 0.125 5.375 -0.738281 3.5625 -2.46875 C 1.757812 -4.195312 0.859375 -6.328125 0.859375 -8.859375 C 0.859375 -11.390625 1.757812 -13.507812 3.5625 -15.21875 Z M 10.265625 -15.109375 C 8.515625 -15.109375 7.015625 -14.503906 5.765625 -13.296875 C 4.515625 -12.085938 3.890625 -10.601562 3.890625 -8.84375 C 3.890625 -7.09375 4.519531 -5.609375 5.78125 -4.390625 C 7.039062 -3.171875 8.535156 -2.5625 10.265625 -2.5625 C 12.003906 -2.5625 13.488281 -3.171875 14.71875 -4.390625 C 15.945312 -5.609375 16.5625 -7.09375 16.5625 -8.84375 C 16.5625 -10.601562 15.945312 -12.085938 14.71875 -13.296875 C 13.488281 -14.503906 12.003906 -15.109375 10.265625 -15.109375 Z M 10.265625 -15.109375 "/></g></g></g><g fill="#ffffff" fill-opacity="1"><g transform="translate(268.887664, 232.884994)"><g><path d="M 14.140625 0 L 8.328125 -7.8125 L 5.3125 -4.5 L 5.3125 0 L 2.328125 0 L 2.328125 -17.703125 L 5.3125 -17.703125 L 5.3125 -8.546875 L 13.765625 -17.703125 L 17.28125 -17.703125 L 10.421875 -10.140625 L 17.734375 0 Z M 14.140625 0 "/></g></g></g><g fill="#ffffff" fill-opacity="1"><g transform="translate(298.198928, 232.884994)"><g><path d="M 17.6875 0 L 14.703125 0 L 14.703125 -7.34375 L 5.3125 -7.34375 L 5.3125 0 L 2.328125 0 L 2.328125 -17.703125 L 5.3125 -17.703125 L 5.3125 -10.015625 L 14.703125 -10.015625 L 14.703125 -17.703125 L 17.6875 -17.703125 Z M 17.6875 0 "/></g></g></g></svg>